<svg xmlns="http://www.w3.org/2000/svg" width="425.897" height="489.533" viewBox="0 0 425.897 489.533">
  <defs>
    <style>
      .cls-1 {
        fill: #6cbf84;
      }
    </style>
  </defs>
  <g id="reload" transform="translate(-31.817 0)">
    <path id="Path_2733" data-name="Path 2733" class="cls-1" d="M268.175,488.161c98.2-11,176.9-89.5,188.1-187.7,14.7-128.4-85.1-237.7-210.2-239.1V3.761c0-3.2-4-4.9-6.7-2.9l-118.6,87.1a3.651,3.651,0,0,0,0,5.9l118.6,87.1c2.7,2,6.7.2,6.7-2.9v-57.5c87.9,1.4,158.3,76.2,152.3,165.6-5.1,76.9-67.8,139.3-144.7,144.2-81.5,5.2-150.8-53-163.2-130a29.541,29.541,0,0,0-29.2-24.7c-17.9,0-31.9,15.9-29.1,33.6C49.575,418.961,150.875,501.261,268.175,488.161Z"/>
  </g>
</svg>
