<svg xmlns="http://www.w3.org/2000/svg" xmlns:xlink="http://www.w3.org/1999/xlink" width="128.76" height="262.116" viewBox="0 0 128.76 262.116">
  <defs>
    <style>
      .cls-1 {
        fill: #ff6700;
      }

      .cls-2 {
        fill: #7d28fe;
      }

      .cls-3 {
        fill: #a16af5;
      }

      .cls-4 {
        clip-path: url(#clip-path);
      }

      .cls-5 {
        fill: #d2fcff;
      }

      .cls-6 {
        fill: #609eae;
      }

      .cls-7 {
        fill: #fff;
      }

      .cls-8 {
        fill: #7bedf5;
      }

      .cls-9 {
        fill: #00a7d1;
      }
    </style>
    <clipPath id="clip-path">
      <path id="SVGID" class="cls-1" d="M700.217,329.182c-9.279.187-26.7,6.384-29.551,16.34s-9.969,29.537-16.734,36.3-10.325,8.545-16.021,7.121-11.037-2.137-12.461,2.848,5.7,11.393,6.764,13.885,7.121,9.257,11.749,6.053,4.985-11.393,8.545-14.954,19.226-12.461,27.771-12.461,18.513,1.78,21.718,1.068c0,0-5.7,8.189-20.294,22.786s-34.179,45.217-27.415,67.291,25.991,35.6,39.52,42.012,23.142,20.293,20.294,27.058-13.173,12.817-20.65,5.7-5.341-17.446,1.068-17.09,7.477,7.833,3.56,11.037c0,0,8.259-2.413,6.409-11.749s-18.514-12.105-26.7-3.916-8.9,35.959,18.869,40.587,43.08-21.006,34.179-43.08-32.755-38.807-29.194-62.305,37.027-58.39,38.1-78.684S732.972,328.521,700.217,329.182Z"/>
    </clipPath>
  </defs>
  <g id="Group_1315" data-name="Group 1315" transform="translate(-625.263 -314.09)">
    <g id="Group_1301" data-name="Group 1301">
      <path id="Path_2698" data-name="Path 2698" class="cls-2" d="M669.492,349.392s4.378-22.288,9.719-28.929,6.052,5.425,6.052,5.425,7.477-8.772,15.31-11.309,9.613,5.472,6.052,8.766c0,0,20.65-2.045,23.5,3.117s-5.34,5.279-5.34,5.279,11.579,5.683,15.046,10.615-4.721,3.166-4.721,3.166S752.2,356.19,750.417,363.31s-7.12,1.78-7.12,1.78,7.476,17.446,4.628,21.362-6.053-1.78-6.053-1.78,5.341,16.022,1.425,21.362-8.545,0-8.545,0,3.691,14.31-3.917,18.514c-3.2,1.771-6.052-2.136-6.052-2.136s.356,12.817-2.136,16.733-8.545,5.341-8.545,5.341,4.628,15.665-7.477,22.074c0,0,11.393,8.189,4.985,19.226,0,0,16.733,6.052,16.377,11.037s-6.408,3.56-6.408,3.56,16.919,8.9,18.25,15.665-6.145,4.629-6.145,4.629,12.461,13.885,9.257,25.634-7.477,0-7.477,0,2.136,12.105-3.56,17.8-9.613,2.136-9.613,2.136-4.248,7.833-12.271,9.613-6.6-3.916-6.6-3.916-11.037,6.408-16.378,1.78-4.5-8.189-4.5-8.189-10.667,0-13.054-5.7,1.886-11.393,1.886-11.393-5.341-2.848-4.272-11.037,6.225-8.544,6.225-8.544-.707-7.121,6.414-8.545S686.6,522,686.6,522s10.4-2.827,14.186,4.922c0,0-18.726-2.681-23,5.152s-1.069,20.294,9.968,26.346,28.839,11.749,32.756-3.916,4.984-23.5-2.849-35.6-40.944-41.423-24.566-69.488,39.876-46.579,39.876-69.721S707.482,309.126,669.492,349.392Z"/>
      <g id="Group_1300" data-name="Group 1300">
        <path id="SVGID-2" data-name="SVGID" class="cls-3" d="M700.217,329.182c-9.279.187-26.7,6.384-29.551,16.34s-9.969,29.537-16.734,36.3-10.325,8.545-16.021,7.121-11.037-2.137-12.461,2.848,5.7,11.393,6.764,13.885,7.121,9.257,11.749,6.053,4.985-11.393,8.545-14.954,19.226-12.461,27.771-12.461,18.513,1.78,21.718,1.068c0,0-5.7,8.189-20.294,22.786s-34.179,45.217-27.415,67.291,25.991,35.6,39.52,42.012,23.142,20.293,20.294,27.058-13.173,12.817-20.65,5.7-5.341-17.446,1.068-17.09,7.477,7.833,3.56,11.037c0,0,8.259-2.413,6.409-11.749s-18.514-12.105-26.7-3.916-8.9,35.959,18.869,40.587,43.08-21.006,34.179-43.08-32.755-38.807-29.194-62.305,37.027-58.39,38.1-78.684S732.972,328.521,700.217,329.182Z"/>
        <g id="Group_1299" data-name="Group 1299" class="cls-4">
          <path id="Path_2699" data-name="Path 2699" class="cls-2" d="M722.828,369.857s7.575,11.967-2,26.92-27.376,23.843-34.853,46.813,2.157,44.961,15.522,58.217,32.9,37.731,19.014,52.693-30.907,1.872-31.346-6.049,17.13,14.946,22.089,5.337,7.491-20.294-7.114-33.111-42.809-35.425-41.057-59.251,29.726-52.9,38.414-60.732S722.906,384.335,722.828,369.857Z"/>
          <path id="Path_2700" data-name="Path 2700" class="cls-5" d="M699.772,385.551s18.691.9,22.43-18.859c0,0,6.141,12.818-8.278,28.038s-37.384,40.054-39.787,61.683,14.153,42.457,22.7,49.4,30.438,25.893,23.231,41.923-36.237,16.955-30.8-10.881c0,0,1.959,11.682,9.438,12.484s13.354-3.472,11.218-10.949-5.608-14.419-19.493-18.958S646.9,495.666,646.1,469.5s13.885-48.6,28.037-61.683S699.772,385.551,699.772,385.551Z"/>
          <g id="Group_1298" data-name="Group 1298">
            <g id="Group_1285" data-name="Group 1285">
              <path id="Path_2701" data-name="Path 2701" class="cls-6" d="M694.814,396.831s.27.25.636.638a5.693,5.693,0,0,0,.724.628,9.191,9.191,0,0,0,.956.724,56.165,56.165,0,0,1,5.346,4.071,8.871,8.871,0,0,1-1.057.061,8.147,8.147,0,0,1-2.612-.489,7.009,7.009,0,0,1-2.946-1.984A4.231,4.231,0,0,1,694.814,396.831Z"/>
            </g>
            <g id="Group_1286" data-name="Group 1286">
              <path id="Path_2702" data-name="Path 2702" class="cls-6" d="M707.323,386.624s.309.046.785.169c.234.068.523.133.842.214l1.034.289a25.091,25.091,0,0,1,2.422.844,21.155,21.155,0,0,1,2.855,1.4,6.765,6.765,0,0,1-.855.348,6.258,6.258,0,0,1-2.286.284A5.117,5.117,0,0,1,707.323,386.624Z"/>
            </g>
            <g id="Group_1287" data-name="Group 1287">
              <path id="Path_2703" data-name="Path 2703" class="cls-6" d="M679.32,412.835s.3.264.748.737l.806.837c.3.328.634.687,1,1.071.7.8,1.541,1.661,2.361,2.662l2.77,3.181a10.154,10.154,0,0,1-1.177-.2,8.6,8.6,0,0,1-2.753-1.283A8.3,8.3,0,0,1,679.32,412.835Z"/>
            </g>
            <g id="Group_1288" data-name="Group 1288">
              <path id="Path_2704" data-name="Path 2704" class="cls-6" d="M663.02,436.314s.342.205.872.594l.944.693c.351.274.745.576,1.172.9.83.675,1.8,1.4,2.777,2.245,1.008.823,2.063,1.7,3.254,2.739a10.988,10.988,0,0,1-1.2-.04,8.826,8.826,0,0,1-2.923-.832A8.463,8.463,0,0,1,663.02,436.314Z"/>
            </g>
            <g id="Group_1289" data-name="Group 1289">
              <path id="Path_2705" data-name="Path 2705" class="cls-6" d="M654.456,464.065s.559.232,1.446.663a13.235,13.235,0,0,0,1.645.659c.32.114.642.265,1,.378l1.143.329a40.763,40.763,0,0,0,12.007,1.685s-.578.3-1.643.75a9.9,9.9,0,0,1-1.97.556,11.868,11.868,0,0,1-2.594.288,15.135,15.135,0,0,1-3-.227,13.242,13.242,0,0,1-1.554-.393,8.976,8.976,0,0,1-1.544-.552A10.706,10.706,0,0,1,654.456,464.065Z"/>
            </g>
            <g id="Group_1290" data-name="Group 1290">
              <path id="Path_2706" data-name="Path 2706" class="cls-6" d="M666.442,494.754l.341.031c.218.025.532.062.935.081a29.167,29.167,0,0,0,3.228.022,27.894,27.894,0,0,0,4.317-.519,8.36,8.36,0,0,0,4.372-2.227l-.083.373a3.555,3.555,0,0,1-.383,1.033,6.138,6.138,0,0,1-2.886,2.625,9.307,9.307,0,0,1-5.071.794A7.7,7.7,0,0,1,666.442,494.754Z"/>
            </g>
            <g id="Group_1291" data-name="Group 1291">
              <path id="Path_2707" data-name="Path 2707" class="cls-6" d="M690.433,513.435s.341-.144.892-.324a9.574,9.574,0,0,0,.964-.355c.365-.127.765-.279,1.19-.472.864-.32,1.807-.79,2.882-1.2,1.062-.454,2.227-.91,3.6-1.359a9.431,9.431,0,0,1-.518.96,8.074,8.074,0,0,1-1.846,2.041,8.219,8.219,0,0,1-1.51.942,7.259,7.259,0,0,1-1.843.554A5.225,5.225,0,0,1,690.433,513.435Z"/>
            </g>
            <g id="Group_1292" data-name="Group 1292">
              <path id="Path_2708" data-name="Path 2708" class="cls-6" d="M703.511,522.514s.239-.161.6-.367a5,5,0,0,0,.62-.385c.23-.14.476-.294.737-.486a17.1,17.1,0,0,1,1.872-1.112,7.946,7.946,0,0,1,2.769-.83,7.326,7.326,0,0,1-.335.757,7.159,7.159,0,0,1-1.116,1.64,4.642,4.642,0,0,1-2.263,1.4A3.151,3.151,0,0,1,703.511,522.514Z"/>
            </g>
            <g id="Group_1293" data-name="Group 1293">
              <path id="Path_2709" data-name="Path 2709" class="cls-6" d="M712.587,534.263s.18-.156.464-.354.663-.469,1.071-.732a7.314,7.314,0,0,1,1.387-.705,12.979,12.979,0,0,1,2.057-.565,3.375,3.375,0,0,1-.065.683,3.285,3.285,0,0,1-.759,1.506A2.75,2.75,0,0,1,712.587,534.263Z"/>
            </g>
            <g id="Group_1294" data-name="Group 1294">
              <path id="Path_2710" data-name="Path 2710" class="cls-6" d="M714.842,543.431l.448.277a2.407,2.407,0,0,0,.438.247,2.713,2.713,0,0,0,.485.224,9.262,9.262,0,0,1,2.505,1.567,2.941,2.941,0,0,1-.474.418,2.077,2.077,0,0,1-.613.325,2.141,2.141,0,0,1-.869.165,2.333,2.333,0,0,1-1.94-.938A1.88,1.88,0,0,1,714.842,543.431Z"/>
            </g>
            <g id="Group_1295" data-name="Group 1295">
              <path id="Path_2711" data-name="Path 2711" class="cls-6" d="M707.9,551.509s.1.207.218.506a10.739,10.739,0,0,0,.463,1.04,25.277,25.277,0,0,1,1.126,2.85,2.561,2.561,0,0,1-2.213-.463,2.677,2.677,0,0,1-.717-.864,2.524,2.524,0,0,1-.236-1.172A2.117,2.117,0,0,1,707.9,551.509Z"/>
            </g>
            <g id="Group_1296" data-name="Group 1296">
              <path id="Path_2712" data-name="Path 2712" class="cls-6" d="M697.19,553.96s.007.218-.008.518-.019.7-.042,1.083a4,4,0,0,1-.231,1.188,15.811,15.811,0,0,1-.762,1.626,2.415,2.415,0,0,1-.51-.349,2.54,2.54,0,0,1-.765-1.3,2.362,2.362,0,0,1,.337-1.9A2.047,2.047,0,0,1,697.19,553.96Z"/>
            </g>
            <g id="Group_1297" data-name="Group 1297">
              <path id="Path_2713" data-name="Path 2713" class="cls-6" d="M692.851,550.258a3.181,3.181,0,0,0-.3,1.053c-.02.191.011.294-.159.425l-1.039.8a1.942,1.942,0,0,1-.407-.3,1.58,1.58,0,0,1-.52-1.038,1.451,1.451,0,0,1,.722-1.4A1.28,1.28,0,0,1,692.851,550.258Z"/>
            </g>
          </g>
        </g>
      </g>
    </g>
    <g id="Group_1302" data-name="Group 1302">
      <path id="Path_2714" data-name="Path 2714" class="cls-2" d="M691.761,358.682a9.215,9.215,0,1,1-18.43,0c0-5.09,4.929-9.215,10.019-9.215S691.761,353.592,691.761,358.682Z"/>
      <circle id="Ellipse_23" data-name="Ellipse 23" class="cls-7" cx="7.88" cy="7.88" r="7.88" transform="translate(674.666 350.802)"/>
      <circle id="Ellipse_24" data-name="Ellipse 24" cx="4.407" cy="4.407" r="4.407" transform="translate(675.338 352.077)"/>
    </g>
    <g id="Group_1309" data-name="Group 1309">
      <path id="Path_2715" data-name="Path 2715" class="cls-8" d="M698.57,449.409c2.593-3.35,27.1-22.636,39.119-19.165s19.226,21.362,15.221,39.787-17.891,28.038-41.656,12.817S692.829,456.824,698.57,449.409Z"/>
      <path id="Path_2716" data-name="Path 2716" class="cls-2" d="M690.573,462.826c-1.363-4.616,7.011-19.578,13.2-19.23s15.683,11.482,13.85,20.561-10.056,17.623-14.89,14.419S692.5,469.338,690.573,462.826Z"/>
      <g id="Group_1308" data-name="Group 1308">
        <g id="Group_1303" data-name="Group 1303">
          <path id="Path_2717" data-name="Path 2717" class="cls-9" d="M714.14,441.384s.617-.564,1.784-1.45a35.681,35.681,0,0,1,5.128-3.268,31.791,31.791,0,0,1,8.122-2.957,25.3,25.3,0,0,1,4.879-.5,20.137,20.137,0,0,1,4.985.684l-.68.012c-.439,0-1.074,0-1.868.072a33.781,33.781,0,0,0-6.244,1.071C725.282,436.285,719.437,439.029,714.14,441.384Z"/>
        </g>
        <g id="Group_1304" data-name="Group 1304">
          <path id="Path_2718" data-name="Path 2718" class="cls-9" d="M719.5,446.983s.777-.44,2.169-1.146a53.215,53.215,0,0,1,5.935-2.617,26.966,26.966,0,0,1,9.119-1.751,18.687,18.687,0,0,1,5.236.771,18.484,18.484,0,0,1,4.854,2.343l-.69-.229a18.319,18.319,0,0,0-1.909-.589,21.981,21.981,0,0,0-6.676-.761,29.935,29.935,0,0,0-4.256.451c-1.473.287-3,.606-4.532,1.037C725.673,445.3,722.53,446.324,719.5,446.983Z"/>
        </g>
        <g id="Group_1305" data-name="Group 1305">
          <path id="Path_2719" data-name="Path 2719" class="cls-9" d="M724.864,455.254s.795-.157,2.2-.379l1.168-.174,1.387-.111a23.779,23.779,0,0,1,3.35-.087,25.425,25.425,0,0,1,8.3,1.535,22,22,0,0,1,7.962,5.379s-.829-.45-2.159-1.231a18.233,18.233,0,0,0-2.453-1.208c-.48-.2-.953-.478-1.5-.657l-1.693-.568C736.761,456.067,730.482,455.851,724.864,455.254Z"/>
        </g>
        <g id="Group_1306" data-name="Group 1306">
          <path id="Path_2720" data-name="Path 2720" class="cls-9" d="M725.16,467.005l.518.066a14.7,14.7,0,0,1,1.457.252,28.227,28.227,0,0,1,5.029,1.6,28.524,28.524,0,0,1,6.474,3.756,18.2,18.2,0,0,1,3.036,3.007,10.1,10.1,0,0,1,1.975,3.927l-.323-.5c-.1-.158-.22-.359-.376-.578l-.585-.711a22.253,22.253,0,0,0-4.135-3.526,68.513,68.513,0,0,0-6.223-3.728C729.748,469.34,727.43,468.123,725.16,467.005Z"/>
        </g>
        <g id="Group_1307" data-name="Group 1307">
          <path id="Path_2721" data-name="Path 2721" class="cls-9" d="M718.77,477.96s.46.129,1.266.416a9,9,0,0,1,1.4.629l.839.446.87.585a17.264,17.264,0,0,1,3.629,3.4,16.865,16.865,0,0,1,2.714,4.977s-.406-.388-1.031-1.057c-.64-.658-1.529-1.573-2.569-2.589C723.818,482.671,721.2,480.356,718.77,477.96Z"/>
        </g>
      </g>
    </g>
    <g id="Group_1314" data-name="Group 1314">
      <path id="Path_2722" data-name="Path 2722" class="cls-8" d="M707.248,355.594s5.341.685,8.011-1.986,4.9-7.138,11.482-5.073,7.681,13.642,2.136,20.828-10.414,3.2-13.618,0S702.709,363.455,707.248,355.594Z"/>
      <g id="Group_1313" data-name="Group 1313">
        <g id="Group_1310" data-name="Group 1310">
          <path id="Path_2723" data-name="Path 2723" class="cls-9" d="M715.534,357.523l1.064-.2c.664-.129,1.6-.331,2.667-.646a24.5,24.5,0,0,0,3.486-1.3,9.254,9.254,0,0,0,3.371-2.6,4.774,4.774,0,0,1-.3,1.2,6,6,0,0,1-1.994,2.536A8.275,8.275,0,0,1,715.534,357.523Z"/>
        </g>
        <g id="Group_1311" data-name="Group 1311">
          <path id="Path_2724" data-name="Path 2724" class="cls-9" d="M717.677,362.063s.384-.052,1.037-.092l2.655-.162c1.084-.037,2.306-.156,3.613-.253a23.972,23.972,0,0,0,4.11-.812s-.278.313-.834.825a7.687,7.687,0,0,1-2.673,1.418A9.826,9.826,0,0,1,717.677,362.063Z"/>
        </g>
        <g id="Group_1312" data-name="Group 1312">
          <path id="Path_2725" data-name="Path 2725" class="cls-9" d="M715.062,365.566s.327.184.836.518l.415.275.519.27a8.98,8.98,0,0,0,1.218.6,21.6,21.6,0,0,0,3.14,1.12c1.193.323,2.506.588,3.941.919,0,0-.382.151-1.064.349a6.98,6.98,0,0,1-1.239.236,7.4,7.4,0,0,1-1.611.049,8.613,8.613,0,0,1-1.847-.318,9.7,9.7,0,0,1-.935-.37,4.037,4.037,0,0,1-.9-.494A5.864,5.864,0,0,1,715.062,365.566Z"/>
        </g>
      </g>
      <path id="Path_2726" data-name="Path 2726" class="cls-2" d="M708.583,359.883c.793-2.993-.934-5.607-3.471-5.741s-3.738,3.338-3.6,5.741S706.815,366.562,708.583,359.883Z"/>
    </g>
  </g>
</svg>
