<svg xmlns="http://www.w3.org/2000/svg" xmlns:xlink="http://www.w3.org/1999/xlink" width="34.602" height="70.438" viewBox="0 0 34.602 70.438">
  <defs>
    <style>
      .cls-1 {
        fill: #ff6700;
      }

      .cls-2 {
        fill: #7d28fe;
      }

      .cls-3 {
        fill: #a16af5;
      }

      .cls-4 {
        clip-path: url(#clip-path);
      }

      .cls-5 {
        fill: #d2fcff;
      }

      .cls-6 {
        fill: #609eae;
      }

      .cls-7 {
        fill: #fff;
      }

      .cls-8 {
        fill: #7bedf5;
      }

      .cls-9 {
        fill: #00a7d1;
      }
    </style>
    <clipPath id="clip-path">
      <path id="SVGID" class="cls-1" d="M645.405,329.175c-2.494.05-7.176,1.716-7.941,4.391s-2.679,7.938-4.5,9.755-2.775,2.3-4.305,1.914-2.966-.574-3.349.765,1.531,3.062,1.818,3.731,1.914,2.488,3.157,1.627,1.34-3.062,2.3-4.019,5.167-3.349,7.463-3.349,4.975.478,5.836.287a52.112,52.112,0,0,1-5.454,6.123c-3.923,3.923-9.185,12.151-7.367,18.083s6.985,9.568,10.62,11.29,6.219,5.453,5.454,7.271-3.54,3.444-5.549,1.531-1.435-4.688.287-4.593a1.665,1.665,0,0,1,.957,2.966,2.6,2.6,0,0,0,1.722-3.157c-.5-2.509-4.975-3.253-7.176-1.052s-2.392,9.663,5.071,10.907,11.577-5.645,9.185-11.577-8.8-10.429-7.845-16.743,9.95-15.691,10.237-21.145S654.207,329,645.405,329.175Z" transform="translate(-625.262 -329.173)"/>
    </clipPath>
  </defs>
  <g id="Group_1315" data-name="Group 1315" transform="translate(-625.263 -314.09)">
    <g id="Group_1301" data-name="Group 1301" transform="translate(625.263 314.09)">
      <path id="Path_2698" data-name="Path 2698" class="cls-2" d="M667.644,323.577s1.177-5.989,2.612-7.774,1.626,1.458,1.626,1.458A11.4,11.4,0,0,1,676,314.222c2.1-.682,2.583,1.471,1.626,2.356,0,0,5.549-.55,6.315.838s-1.435,1.419-1.435,1.419,3.112,1.527,4.043,2.853-1.269.851-1.269.851,4.592,2.867,4.114,4.78-1.913.478-1.913.478,2.009,4.688,1.244,5.741-1.627-.478-1.627-.478,1.435,4.306.383,5.741-2.3,0-2.3,0,.992,3.846-1.053,4.975c-.861.476-1.626-.574-1.626-.574s.1,3.444-.574,4.5a4.227,4.227,0,0,1-2.3,1.435s1.244,4.21-2.009,5.932c0,0,3.062,2.2,1.34,5.167,0,0,4.5,1.626,4.4,2.966s-1.722.957-1.722.957,4.547,2.392,4.9,4.21-1.651,1.244-1.651,1.244,3.349,3.731,2.488,6.889-2.009,0-2.009,0,.574,3.253-.957,4.784-2.583.574-2.583.574a5.585,5.585,0,0,1-3.3,2.583c-2.156.478-1.773-1.052-1.773-1.052s-2.966,1.722-4.4.478-1.208-2.2-1.208-2.2-2.867,0-3.508-1.531a3.424,3.424,0,0,1,.507-3.062A2.8,2.8,0,0,1,667,374.1c.287-2.2,1.673-2.3,1.673-2.3a2.123,2.123,0,0,1,1.724-2.3c1.913-.383,1.842.45,1.842.45s2.8-.76,3.812,1.323c0,0-5.032-.72-6.18,1.384s-.287,5.454,2.679,7.08,7.75,3.157,8.8-1.052,1.339-6.315-.766-9.568-11-11.132-6.6-18.673S684.7,337.937,684.7,331.718,677.853,312.756,667.644,323.577Z" transform="translate(-655.758 -314.09)"/>
      <g id="Group_1300" data-name="Group 1300" transform="translate(0 4.053)">
        <path id="SVGID-2" data-name="SVGID" class="cls-3" d="M645.405,329.175c-2.494.05-7.176,1.716-7.941,4.391s-2.679,7.938-4.5,9.755-2.775,2.3-4.305,1.914-2.966-.574-3.349.765,1.531,3.062,1.818,3.731,1.914,2.488,3.157,1.627,1.34-3.062,2.3-4.019,5.167-3.349,7.463-3.349,4.975.478,5.836.287a52.112,52.112,0,0,1-5.454,6.123c-3.923,3.923-9.185,12.151-7.367,18.083s6.985,9.568,10.62,11.29,6.219,5.453,5.454,7.271-3.54,3.444-5.549,1.531-1.435-4.688.287-4.593a1.665,1.665,0,0,1,.957,2.966,2.6,2.6,0,0,0,1.722-3.157c-.5-2.509-4.975-3.253-7.176-1.052s-2.392,9.663,5.071,10.907,11.577-5.645,9.185-11.577-8.8-10.429-7.845-16.743,9.95-15.691,10.237-21.145S654.207,329,645.405,329.175Z" transform="translate(-625.262 -329.173)"/>
        <g id="Group_1299" data-name="Group 1299" class="cls-4">
          <path id="Path_2699" data-name="Path 2699" class="cls-2" d="M679.081,369.857a6.884,6.884,0,0,1-.537,7.234c-2.573,4.019-7.357,6.407-9.366,12.58s.58,12.082,4.171,15.645,8.841,10.139,5.11,14.16-8.306.5-8.424-1.626,4.6,4.016,5.936,1.434,2.013-5.454-1.912-8.9-11.5-9.52-11.033-15.922,7.988-14.216,10.323-16.32S679.1,373.748,679.081,369.857Z" transform="translate(-652.862 -358.924)"/>
          <path id="Path_2700" data-name="Path 2700" class="cls-5" d="M660.5,371.76a5.939,5.939,0,0,0,6.028-5.068s1.65,3.445-2.225,7.535S654.257,384.99,653.611,390.8s3.8,11.409,6.1,13.275,8.18,6.958,6.243,11.266-9.738,4.556-8.277-2.924c0,0,.526,3.139,2.536,3.355s3.589-.933,3.015-2.942-1.507-3.875-5.238-5.095-11.7-6.386-11.912-13.419,3.731-13.06,7.534-16.576S660.5,371.76,660.5,371.76Z" transform="translate(-640.477 -356.61)"/>
          <g id="Group_1298" data-name="Group 1298" transform="translate(7.845 15.439)">
            <g id="Group_1285" data-name="Group 1285" transform="translate(10.82 2.743)">
              <path id="Path_2701" data-name="Path 2701" class="cls-6" d="M694.746,396.831s.073.067.171.171a1.528,1.528,0,0,0,.194.169,2.5,2.5,0,0,0,.257.195,15.072,15.072,0,0,1,1.437,1.094,2.387,2.387,0,0,1-.284.016,2.192,2.192,0,0,1-.7-.131,1.882,1.882,0,0,1-.792-.533A1.137,1.137,0,0,1,694.746,396.831Z" transform="translate(-694.721 -396.831)"/>
            </g>
            <g id="Group_1286" data-name="Group 1286" transform="translate(14.207)">
              <path id="Path_2702" data-name="Path 2702" class="cls-6" d="M707.323,386.624s.083.012.211.045c.063.018.141.036.226.057l.278.078a6.742,6.742,0,0,1,.651.227,5.68,5.68,0,0,1,.767.375,1.807,1.807,0,0,1-.23.094,1.681,1.681,0,0,1-.614.076A1.375,1.375,0,0,1,707.323,386.624Z" transform="translate(-707.323 -386.624)"/>
            </g>
            <g id="Group_1287" data-name="Group 1287" transform="translate(6.678 7.044)">
              <path id="Path_2703" data-name="Path 2703" class="cls-6" d="M679.311,412.835s.08.071.2.2l.217.225c.08.088.17.185.269.288.189.214.414.446.635.715l.744.855a2.723,2.723,0,0,1-.316-.054,2.312,2.312,0,0,1-.74-.345A2.232,2.232,0,0,1,679.311,412.835Z" transform="translate(-679.308 -412.835)"/>
            </g>
            <g id="Group_1288" data-name="Group 1288" transform="translate(2.301 13.353)">
              <path id="Path_2704" data-name="Path 2704" class="cls-6" d="M663.02,436.314s.092.055.234.16l.254.186c.094.074.2.155.315.241.223.181.483.375.746.6s.554.457.874.736a2.946,2.946,0,0,1-.321-.011,2.373,2.373,0,0,1-.786-.224A2.274,2.274,0,0,1,663.02,436.314Z" transform="translate(-663.02 -436.314)"/>
            </g>
            <g id="Group_1289" data-name="Group 1289" transform="translate(0 20.811)">
              <path id="Path_2705" data-name="Path 2705" class="cls-6" d="M654.456,464.065s.15.062.389.178a3.569,3.569,0,0,0,.442.177c.086.031.172.071.269.1l.307.088a10.955,10.955,0,0,0,3.227.453s-.155.081-.442.2a2.664,2.664,0,0,1-.529.149,3.192,3.192,0,0,1-.7.077,4.071,4.071,0,0,1-.806-.061,3.563,3.563,0,0,1-.418-.106,2.412,2.412,0,0,1-.415-.148A2.877,2.877,0,0,1,654.456,464.065Z" transform="translate(-654.456 -464.065)"/>
            </g>
            <g id="Group_1290" data-name="Group 1290" transform="translate(3.221 28.356)">
              <path id="Path_2706" data-name="Path 2706" class="cls-6" d="M666.442,492.844l.092.008c.059.007.143.017.251.022a7.825,7.825,0,0,0,.867.006,7.488,7.488,0,0,0,1.16-.139,2.246,2.246,0,0,0,1.175-.6l-.022.1a.954.954,0,0,1-.1.278,1.649,1.649,0,0,1-.775.705,2.5,2.5,0,0,1-1.363.213A2.069,2.069,0,0,1,666.442,492.844Z" transform="translate(-666.442 -492.142)"/>
            </g>
            <g id="Group_1291" data-name="Group 1291" transform="translate(9.668 33.082)">
              <path id="Path_2707" data-name="Path 2707" class="cls-6" d="M690.433,510.725s.092-.039.24-.087a2.565,2.565,0,0,0,.259-.1c.1-.034.206-.075.32-.127.232-.086.486-.212.774-.321s.6-.245.966-.365a2.526,2.526,0,0,1-.139.258,2.169,2.169,0,0,1-.5.548,2.207,2.207,0,0,1-.406.253,1.951,1.951,0,0,1-.5.149A1.4,1.4,0,0,1,690.433,510.725Z" transform="translate(-690.433 -509.729)"/>
            </g>
            <g id="Group_1292" data-name="Group 1292" transform="translate(13.183 35.663)">
              <path id="Path_2708" data-name="Path 2708" class="cls-6" d="M703.511,520.189s.064-.043.162-.1a1.342,1.342,0,0,0,.167-.1c.062-.038.128-.079.2-.131a4.6,4.6,0,0,1,.5-.3,2.137,2.137,0,0,1,.744-.223,1.973,1.973,0,0,1-.09.2,1.922,1.922,0,0,1-.3.441,1.247,1.247,0,0,1-.608.377A.847.847,0,0,1,703.511,520.189Z" transform="translate(-703.511 -519.334)"/>
            </g>
            <g id="Group_1293" data-name="Group 1293" transform="translate(15.622 39.042)">
              <path id="Path_2709" data-name="Path 2709" class="cls-6" d="M712.587,532.54s.048-.042.125-.1.178-.126.288-.2a1.963,1.963,0,0,1,.373-.189,3.5,3.5,0,0,1,.553-.152.9.9,0,0,1-.017.184.883.883,0,0,1-.2.4A.739.739,0,0,1,712.587,532.54Z" transform="translate(-712.587 -531.907)"/>
            </g>
            <g id="Group_1294" data-name="Group 1294" transform="translate(16.121 42.139)">
              <path id="Path_2710" data-name="Path 2710" class="cls-6" d="M714.552,543.431l.12.074a.651.651,0,0,0,.118.066.732.732,0,0,0,.13.06,2.488,2.488,0,0,1,.673.421.785.785,0,0,1-.127.112.558.558,0,0,1-.165.087.576.576,0,0,1-.234.044.627.627,0,0,1-.521-.252A.505.505,0,0,1,714.552,543.431Z" transform="translate(-714.445 -543.431)"/>
            </g>
            <g id="Group_1295" data-name="Group 1295" transform="translate(13.994 44.31)">
              <path id="Path_2711" data-name="Path 2711" class="cls-6" d="M706.9,551.509s.027.056.059.136a2.9,2.9,0,0,0,.124.279,6.789,6.789,0,0,1,.3.766.688.688,0,0,1-.595-.124.72.72,0,0,1-.193-.232.679.679,0,0,1-.063-.315A.569.569,0,0,1,706.9,551.509Z" transform="translate(-706.529 -551.509)"/>
            </g>
            <g id="Group_1296" data-name="Group 1296" transform="translate(10.843 44.964)">
              <path id="Path_2712" data-name="Path 2712" class="cls-6" d="M695.445,553.949s0,.059,0,.139-.005.187-.011.291a1.073,1.073,0,0,1-.062.319,4.256,4.256,0,0,1-.2.437.647.647,0,0,1-.137-.094.682.682,0,0,1-.206-.35.635.635,0,0,1,.091-.511A.55.55,0,0,1,695.445,553.949Z" transform="translate(-694.804 -553.944)"/>
            </g>
            <g id="Group_1297" data-name="Group 1297" transform="translate(9.662 43.804)">
              <path id="Path_2713" data-name="Path 2713" class="cls-6" d="M691.065,549.8a.855.855,0,0,0-.082.283c-.005.051,0,.079-.043.114l-.279.214a.52.52,0,0,1-.109-.08.424.424,0,0,1-.14-.279.39.39,0,0,1,.194-.377A.344.344,0,0,1,691.065,549.8Z" transform="translate(-690.409 -549.627)"/>
            </g>
          </g>
        </g>
      </g>
    </g>
    <g id="Group_1302" data-name="Group 1302" transform="translate(638.18 323.597)">
      <path id="Path_2714" data-name="Path 2714" class="cls-2" d="M678.284,351.943a2.476,2.476,0,1,1-4.953,0,2.67,2.67,0,0,1,2.692-2.476A2.3,2.3,0,0,1,678.284,351.943Z" transform="translate(-673.331 -349.467)"/>
      <circle id="Ellipse_23" data-name="Ellipse 23" class="cls-7" cx="2.118" cy="2.118" r="2.118" transform="translate(0.359 0.359)"/>
      <circle id="Ellipse_24" data-name="Ellipse 24" cx="1.184" cy="1.184" r="1.184" transform="translate(0.539 0.701)"/>
    </g>
    <g id="Group_1309" data-name="Group 1309" transform="translate(642.774 345.192)">
      <path id="Path_2715" data-name="Path 2715" class="cls-8" d="M694.985,435.09c.7-.9,7.283-6.083,10.512-5.15s5.167,5.741,4.09,10.692-4.808,7.535-11.194,3.444S693.443,437.083,694.985,435.09Z" transform="translate(-692.797 -429.828)"/>
      <path id="Path_2716" data-name="Path 2716" class="cls-2" d="M690.465,448.759c-.366-1.24,1.884-5.261,3.547-5.168s4.214,3.086,3.722,5.525-2.7,4.736-4,3.875A8.41,8.41,0,0,1,690.465,448.759Z" transform="translate(-690.426 -439.892)"/>
      <g id="Group_1308" data-name="Group 1308" transform="translate(6.373 0.909)">
        <g id="Group_1303" data-name="Group 1303">
          <path id="Path_2717" data-name="Path 2717" class="cls-9" d="M714.14,435.406s.166-.152.479-.39a9.6,9.6,0,0,1,1.378-.878,8.545,8.545,0,0,1,2.183-.795,6.8,6.8,0,0,1,1.311-.134,5.412,5.412,0,0,1,1.34.184l-.183,0c-.118,0-.289,0-.5.019a9.082,9.082,0,0,0-1.678.288A29.23,29.23,0,0,0,714.14,435.406Z" transform="translate(-714.14 -433.209)"/>
        </g>
        <g id="Group_1304" data-name="Group 1304" transform="translate(1.44 2.22)">
          <path id="Path_2718" data-name="Path 2718" class="cls-9" d="M719.5,442.951s.209-.118.583-.308a14.3,14.3,0,0,1,1.595-.7,7.248,7.248,0,0,1,2.451-.471,5.025,5.025,0,0,1,1.407.207,4.97,4.97,0,0,1,1.3.63l-.185-.062a4.911,4.911,0,0,0-.513-.158,5.907,5.907,0,0,0-1.794-.2A8.038,8.038,0,0,0,723.2,442c-.4.077-.806.163-1.218.279C721.157,442.5,720.312,442.773,719.5,442.951Z" transform="translate(-719.497 -441.469)"/>
        </g>
        <g id="Group_1305" data-name="Group 1305" transform="translate(2.882 5.715)">
          <path id="Path_2719" data-name="Path 2719" class="cls-9" d="M724.864,454.685s.214-.042.592-.1l.314-.047.373-.03a6.388,6.388,0,0,1,.9-.023,6.833,6.833,0,0,1,2.23.413,5.912,5.912,0,0,1,2.14,1.445s-.223-.121-.58-.331a4.9,4.9,0,0,0-.659-.325c-.129-.054-.256-.128-.4-.177l-.455-.153A20.66,20.66,0,0,0,724.864,454.685Z" transform="translate(-724.864 -454.476)"/>
        </g>
        <g id="Group_1306" data-name="Group 1306" transform="translate(2.961 9.082)">
          <path id="Path_2720" data-name="Path 2720" class="cls-9" d="M725.16,467.005l.139.018a3.915,3.915,0,0,1,.391.068,7.58,7.58,0,0,1,1.352.43,7.66,7.66,0,0,1,1.74,1.009,4.885,4.885,0,0,1,.816.808,2.715,2.715,0,0,1,.531,1.055l-.087-.134c-.028-.042-.059-.1-.1-.155l-.157-.191a5.981,5.981,0,0,0-1.111-.948,18.389,18.389,0,0,0-1.672-1C726.393,467.632,725.77,467.305,725.16,467.005Z" transform="translate(-725.16 -467.005)"/>
        </g>
        <g id="Group_1307" data-name="Group 1307" transform="translate(1.244 12.026)">
          <path id="Path_2721" data-name="Path 2721" class="cls-9" d="M718.77,477.96s.124.035.34.112a2.42,2.42,0,0,1,.377.169l.225.12.234.157a4.637,4.637,0,0,1,.975.913,4.533,4.533,0,0,1,.729,1.337s-.109-.1-.277-.284-.411-.423-.69-.7C720.127,479.226,719.423,478.6,718.77,477.96Z" transform="translate(-718.77 -477.96)"/>
        </g>
      </g>
    </g>
    <g id="Group_1314" data-name="Group 1314" transform="translate(645.749 323.204)">
      <path id="Path_2722" data-name="Path 2722" class="cls-8" d="M706.355,350.045a2.975,2.975,0,0,0,2.153-.534c.718-.718,1.317-1.918,3.086-1.363s2.064,3.666.574,5.6-2.8.861-3.66,0S705.135,352.158,706.355,350.045Z" transform="translate(-704.81 -348.006)"/>
      <g id="Group_1313" data-name="Group 1313" transform="translate(3.645 1.281)">
        <g id="Group_1310" data-name="Group 1310" transform="translate(0.127)">
          <path id="Path_2723" data-name="Path 2723" class="cls-9" d="M715.534,354.05l.286-.053c.178-.035.429-.089.717-.174a6.585,6.585,0,0,0,.937-.35,2.486,2.486,0,0,0,.906-.7,1.276,1.276,0,0,1-.081.322,1.614,1.614,0,0,1-.536.681A2.224,2.224,0,0,1,715.534,354.05Z" transform="translate(-715.534 -352.774)"/>
        </g>
        <g id="Group_1311" data-name="Group 1311" transform="translate(0.703 2.142)">
          <path id="Path_2724" data-name="Path 2724" class="cls-9" d="M717.677,361.1s.1-.014.279-.025l.713-.044c.291-.01.62-.042.971-.068a6.44,6.44,0,0,0,1.1-.218s-.075.084-.224.222a2.064,2.064,0,0,1-.718.381A2.641,2.641,0,0,1,717.677,361.1Z" transform="translate(-717.677 -360.744)"/>
        </g>
        <g id="Group_1312" data-name="Group 1312" transform="translate(0 3.438)">
          <path id="Path_2725" data-name="Path 2725" class="cls-9" d="M715.062,365.566s.088.049.225.139l.112.074.139.073a2.412,2.412,0,0,0,.327.162,5.806,5.806,0,0,0,.844.3c.321.087.673.158,1.059.247,0,0-.1.041-.286.094a1.869,1.869,0,0,1-.333.063,1.983,1.983,0,0,1-.433.013,2.314,2.314,0,0,1-.5-.085,2.615,2.615,0,0,1-.251-.1,1.088,1.088,0,0,1-.243-.133A1.575,1.575,0,0,1,715.062,365.566Z" transform="translate(-715.062 -365.566)"/>
        </g>
      </g>
      <path id="Path_2726" data-name="Path 2726" class="cls-2" d="M703.4,355.682a1.146,1.146,0,0,0-.933-1.543c-.682-.036-1,.9-.969,1.543S702.926,357.477,703.4,355.682Z" transform="translate(-701.497 -352.49)"/>
    </g>
  </g>
</svg>
