<svg id="Layer_2" data-name="Layer 2" xmlns="http://www.w3.org/2000/svg" width="96.32" height="150.675" viewBox="0 0 96.32 150.675">
  <defs>
    <style>
      .cls-1 {
        fill: #feffff;
      }

      .cls-2 {
        fill: #e9e9e9;
      }

      .cls-3 {
        fill: #901d24;
      }

      .cls-4 {
        fill: #ef2e41;
      }

      .cls-5 {
        fill: #fff;
      }
    </style>
  </defs>
  <g id="Layer_1" data-name="Layer 1" transform="translate(0 0)">
    <path id="Path_2727" data-name="Path 2727" class="cls-1" d="M35.3,125.93c6.3-1.13,12.2-2.35,18.17-3.2,5-.72,10.1-1.12,15.17-1.43a3.1,3.1,0,0,0,3.06-1.77,132.82,132.82,0,0,0,13.86-39.76,142.129,142.129,0,0,0,2.36-20.63c.12-4.08-1.15-8.29-2.34-12.28C81.3,32.52,76.812,18.26,72.362,4a41.56,41.56,0,0,0-1.75-4c-.49,5.29-.83,9.86-1.36,14.4C65.122,49.56,58.392,84,41.5,115.67c-.9,1.7-1.91,3.35-2.91,5S36.562,123.93,35.3,125.93Z" transform="translate(-26.912 0)"/>
    <path id="Path_2728" data-name="Path 2728" class="cls-2" d="M6.07,123.82c7.58-.32,15.34-.95,23.09-.87s15.38,1,22.9,4.76C49.4,98,41.83,70.16,26.9,43.65,24.13,72.06,21.02,99.67,6.07,123.82Z" transform="translate(38.19 0)"/>
    <path id="Path_2729" data-name="Path 2729" class="cls-3" d="M0,135.92c1.87,4.79,3.42,9.13,5.34,13.31.37.81,2.14,1.38,3.27,1.38,18.29.09,36.58.06,54.87.06H80.63c.84,0,2,0,2.47-.48,5.22-5.19,10.3-10.55,13.22-18.07C64.38,137.22,32.58,137.43,0,135.92Z" transform="translate(0 0)"/>
    <path id="Path_2730" data-name="Path 2730" class="cls-4" d="M76.85,133c-4.17-3.06-8.42-5.47-13.71-5.41-5.1.06-10.2,0-15.3,0-.73,0-1.86.11-2.12.56-2.62,4.53-7.32,4.25-11.5,5.17-.74.17-1.5.22-2.73.4C39.65,136.22,70.16,135.66,76.85,133Zm-17.07-3.81c4.33,0,8.7-1,11.76,3.48H59.78Zm-11.1.12h8.66v3.33H48.69Z" transform="translate(-12.02 0)"/>
    <path id="Path_2731" data-name="Path 2731" class="cls-5" d="M36.8,129.21v3.48H48.56C45.5,128.19,41.13,129.23,36.8,129.21Z" transform="translate(10.96 0)"/>
    <path id="Path_2732" data-name="Path 2732" class="cls-5" d="M51,129.33v3.33h8.66v-3.33Z" transform="translate(-14.34 0)"/>
  </g>
</svg>
